<svg xmlns="http://www.w3.org/2000/svg" viewBox="0 0 64 64"><path d="M32 3 55 10.5v17.5c0 15.5-9.5 26.8-23 33C18.5 54.8 9 43.5 9 28V10.5Z" fill="#457507" stroke="#b08d2e" stroke-width="2.2" stroke-linejoin="round"/><path d="M32 8.4l1.5 3 3.3.5-2.4 2.3.6 3.3-3-1.6-3 1.6.6-3.3-2.4-2.3 3.3-.5 1.5-3z" fill="#b08d2e"/><circle cx="32" cy="30.5" r="12" fill="#f6f4ef"/><circle cx="32" cy="30.5" r="12" fill="none" stroke="#253d04" stroke-width="1.1"/><path d="M32 20.3v2M40.5 30.5h-2M32 40.7v-2M23.5 30.5h2" stroke="#253d04" stroke-width="1.6" stroke-linecap="round"/><path d="M27.2 31.2l3.1 3.1 6.4-7" fill="none" stroke="#b08d2e" stroke-width="2.6" stroke-linecap="round" stroke-linejoin="round"/><path d="M24 46.3c3.2-2 6.4-2 8 0c1.6-2 4.8-2 8 0v4.1c-3.2-1.9-6.4-1.9-8 .2c-1.6-2.1-4.8-2.1-8-.2v-4.1z" fill="#f6f4ef"/><path d="M32 46.3v4.2" stroke="#b08d2e" stroke-width="0.9"/></svg>
